<svg width="202" height="96" fill="none" xmlns="http://www.w3.org/2000/svg"><path fill-rule="evenodd" clip-rule="evenodd" d="M14.836 28.617h1.904a15.685 15.685 0 0 1 9.726 4.37c2.115 2.044 3.666 4.652 4.3 7.542.282 1.339.352 2.678.282 4.017 0 .705.07 1.41-.282 2.044-.211.423-.705.705-1.128.846-.846.212-1.691.212-2.537.212H15.823a1.895 1.895 0 0 1-1.903-1.904V42.574c0-1.058.846-1.903 1.903-1.903h6.414c-.775-1.904-2.326-3.525-4.37-4.159-1.41-.423-3.312-.352-4.722.141-2.044.775-3.242 2.114-4.159 4.018-.916 2.114-.705 5.004 0 7.118.353 1.058.846 2.115 1.621 3.031 1.41 1.692 3.666 2.397 5.78 2.397h2.397c-.141.352-.212.564-.212.634-.14.564-.211 1.057-.211 1.903 0 .705.211 1.833.705 2.75.422.845 1.127 1.55 1.41 1.973-3.454.423-7.543.423-10.926-1.128-3.383-1.55-6.273-4.3-7.894-7.683-1.41-2.89-1.833-6.132-1.41-9.304.564-3.947 2.608-7.753 5.71-10.29 2.537-2.045 5.638-3.313 8.88-3.454Z" fill="#0BA6E0"/><path fill-rule="evenodd" clip-rule="evenodd" d="M29.215 50.326c1.34.634 2.397 1.833 2.89 3.172.282.987.353 2.044.141 3.03-.07.142-.07.353-.14.494-.283.775-.776 1.48-1.34 2.115-1.128 1.057-2.608 1.691-4.088 1.55-1.41 0-2.678-.634-3.736-1.55a6.698 6.698 0 0 1-1.48-2.679 7.251 7.251 0 0 1 0-2.467c.07-.14.07-.352.141-.493.493-1.41 1.48-2.538 2.82-3.172a5.696 5.696 0 0 1 4.792 0Z" fill="#F6941E"/><path fill-rule="evenodd" clip-rule="evenodd" d="M48.317 60.758c1.48 0 2.96-.212 4.3-.705 1.338-.493 2.607-1.128 3.735-1.903.211-.141.423-.353.634-.564.212-.212.282-.493.282-.775 0-.07 0-.212-.07-.353-.07-.14-.141-.282-.212-.352L54.66 52.58c-.211-.352-.423-.493-.634-.634-.212-.07-.423-.14-.634-.14-.07 0-.212 0-.423.07-.141 0-.353.14-.564.282a10.64 10.64 0 0 1-1.974 1.057 5.845 5.845 0 0 1-2.255.423c-.846 0-1.692-.141-2.397-.494-.705-.352-1.339-.775-1.903-1.41a6.517 6.517 0 0 1-1.198-2.043 7.373 7.373 0 0 1-.423-2.538c0-.916.141-1.762.423-2.537a7.815 7.815 0 0 1 1.198-2.115c.494-.634 1.128-1.057 1.903-1.41a5.452 5.452 0 0 1 2.397-.563c.775 0 1.55.14 2.255.352.705.282 1.34.564 1.974.987.211.14.423.282.634.352.212.07.353.07.423.07.564 0 1.057-.352 1.41-.986l1.832-3.101c.141-.282.282-.494.282-.776 0-.352-.07-.634-.282-.916a6.353 6.353 0 0 0-.705-.634l.071.07c-1.128-.775-2.326-1.41-3.595-1.762-1.269-.423-2.678-.634-4.229-.634-1.269 0-2.467.14-3.595.493-1.127.353-2.255.775-3.242 1.34a13.01 13.01 0 0 0-2.749 2.114 13.014 13.014 0 0 0-2.114 2.749c-.564.986-1.057 2.114-1.34 3.242-.281 1.128-.493 2.397-.493 3.665 0 1.269.141 2.467.493 3.665.353 1.199.776 2.256 1.34 3.243a13.014 13.014 0 0 0 2.114 2.749c.846.845 1.762 1.55 2.75 2.114.986.564 2.043 1.057 3.242 1.34 1.198.352 2.396.493 3.665.493Zm18.467-33.41c.211 0 .282.07.423.141.14.07.282.211.422.282.141.14.212.282.353.493.07.212.14.423.14.635v30.449c0 .493-.14.846-.422 1.057-.282.282-.705.423-1.128.423h-4.934c-.493 0-.846-.14-1.057-.423-.212-.282-.352-.634-.352-1.198v-30.45c0-.422.14-.704.352-.986.211-.282.634-.423 1.128-.423h5.075Zm17.41 6.132c1.127 0 2.255.141 3.312.423 1.057.282 2.115.705 3.031 1.269.916.564 1.832 1.198 2.608 1.973.775.776 1.48 1.621 2.044 2.538.564.916.987 1.903 1.34 2.96.281 1.057.493 2.115.493 3.242v1.763c0 .422-.141.845-.353 1.057-.211.282-.493.423-.987.564-.423.07-1.127.14-1.973.14H78.766v.142c.141.846.423 1.48.846 2.044.423.564.916 1.057 1.48 1.41.564.352 1.128.634 1.762.775a7.993 7.993 0 0 0 1.762.211c.494 0 .987-.07 1.55-.14a6.354 6.354 0 0 0 1.552-.424 4.676 4.676 0 0 0 1.339-.634c.423-.212.705-.493.987-.705.211-.211.422-.282.563-.423.141-.07.353-.14.494-.14.211 0 .352.07.564.21.211.142.423.283.634.565l2.185 2.467.07.07c.141.141.212.282.212.423.07.14.07.282.07.423 0 .282-.07.493-.21.705-.142.211-.353.352-.565.564-1.198 1.127-2.608 1.973-4.088 2.608-1.55.634-3.172.916-4.863.916-1.903 0-3.666-.353-5.357-1.057-1.692-.705-3.172-1.622-4.44-2.89-1.27-1.199-2.256-2.679-3.032-4.3-.775-1.621-1.127-3.454-1.127-5.427 0-1.199.14-2.397.423-3.524a14.07 14.07 0 0 1 1.268-3.243c.564-.986 1.199-1.903 1.974-2.749.775-.846 1.691-1.55 2.608-2.114a16.077 16.077 0 0 1 3.172-1.41c1.127-.07 2.326-.282 3.594-.282Zm-.142 6.344c-.564 0-1.057.14-1.55.352a5.764 5.764 0 0 0-1.41.846 9.626 9.626 0 0 0-1.198 1.198 5.76 5.76 0 0 0-.846 1.41h10.643c-.282-.564-.634-1.057-.916-1.48-.353-.423-.705-.846-1.198-1.198a3.73 3.73 0 0 0-1.48-.776c-.635-.211-1.27-.352-2.045-.352Zm29.604 20.934c1.48 0 2.96-.212 4.299-.705 1.34-.493 2.608-1.128 3.736-1.903.212-.141.423-.353.634-.564.212-.212.282-.493.282-.775 0-.07 0-.212-.07-.353-.071-.14-.141-.282-.212-.352L120 52.58c-.212-.352-.423-.493-.635-.634-.211-.07-.423-.14-.634-.14-.071 0-.212 0-.423.07-.141 0-.353.14-.564.282-.634.422-1.269.775-1.974 1.057a5.838 5.838 0 0 1-2.255.423c-.846 0-1.692-.141-2.397-.494-.704-.352-1.339-.775-1.903-1.41a6.526 6.526 0 0 1-1.198-2.043 7.371 7.371 0 0 1-.423-2.538c0-.916.141-1.762.423-2.537.282-.776.705-1.48 1.198-2.115.494-.634 1.128-1.057 1.903-1.41a5.454 5.454 0 0 1 2.397-.563c.775 0 1.551.14 2.255.352.705.282 1.34.564 1.974.987.211.14.423.282.634.352.212.07.353.07.423.07.564 0 1.058-.352 1.41-.986l1.833-3.101c.141-.282.281-.494.281-.776 0-.352-.07-.634-.281-.916-.212-.211-.423-.423-.705-.634l.07.07c-1.128-.775-2.326-1.41-3.595-1.762-1.268-.423-2.678-.634-4.229-.634-1.268 0-2.467.14-3.594.493-1.128.353-2.256.775-3.243 1.34a13.036 13.036 0 0 0-2.749 2.114 13.04 13.04 0 0 0-2.114 2.749c-.564.986-1.057 2.114-1.339 3.242-.353 1.198-.494 2.397-.494 3.665 0 1.269.141 2.467.494 3.665.352 1.199.775 2.256 1.339 3.243a13.04 13.04 0 0 0 2.114 2.749 13.04 13.04 0 0 0 2.749 2.114c.987.564 2.044 1.057 3.243 1.34 1.198.352 2.396.493 3.665.493Zm21.991 0c.564 0 .987-.141 1.269-.423.282-.282.423-.635.423-1.198v-17.48h2.819c.423 0 .775-.142 1.057-.423.282-.282.423-.705.423-1.27v-4.017c0-.493-.141-.916-.423-1.198a1.434 1.434 0 0 0-1.057-.423h-2.819v-5.71c0-.493-.071-.845-.282-1.197-.141-.282-.494-.423-1.057-.423h-.423l-4.723 1.62c-.493.212-.916.424-1.198.635-.282.212-.423.564-.423.987v4.088h-2.115c-1.057 0-1.621.493-1.621 1.55v4.018c0 1.128.564 1.692 1.621 1.692h2.115v17.48c0 1.057.564 1.621 1.621 1.621h4.793v.07Zm15.154-29.886c.282 0 .635-.211.846-.352.212-.212.353-.353.493-.564.141-.212.212-.423.353-.634.07-.212.141-.423.141-.564V24.74c0-.564-.141-.916-.423-1.128-.282-.14-.705-.14-1.198 0l-4.864 1.41a2.851 2.851 0 0 0-1.198.705c-.282.282-.352.775-.352 1.34v2.537c0 1.127.564 1.41 1.55 1.41h4.652v-.142Zm.071 29.956c.564 0 .987-.14 1.268-.423.282-.282.423-.634.423-1.198V36.088c0-.282-.07-.493-.211-.634-.141-.212-.282-.353-.423-.494a1.532 1.532 0 0 0-.564-.352c-.211-.07-.352-.141-.564-.141h-4.793c-.493 0-.916.14-1.198.493-.282.353-.352.705-.352 1.128v23.12c0 1.056.493 1.62 1.55 1.62h4.864Zm18.396-.07c1.48 0 2.961-.212 4.3-.705s2.608-1.128 3.736-1.903c.211-.141.422-.353.634-.564.211-.212.282-.493.282-.775 0-.07 0-.212-.071-.353-.07-.14-.141-.282-.211-.352l-2.326-3.525c-.212-.352-.423-.493-.634-.634-.212-.07-.423-.14-.635-.14-.07 0-.211 0-.423.07-.141 0-.352.14-.564.282-.634.422-1.268.775-1.973 1.057a5.847 5.847 0 0 1-2.256.423c-.846 0-1.691-.141-2.396-.494-.705-.352-1.339-.775-1.903-1.41a6.509 6.509 0 0 1-1.199-2.043 7.395 7.395 0 0 1-.422-2.538c0-.916.141-1.762.422-2.537a7.804 7.804 0 0 1 1.199-2.115c.493-.634 1.127-1.057 1.903-1.41a5.45 5.45 0 0 1 2.396-.563c.776 0 1.551.14 2.256.352.705.282 1.339.564 1.973.987.212.14.423.282.635.352.211.07.352.07.423.07.564 0 1.057-.352 1.409-.986l1.833-3.101c.141-.282.282-.494.282-.776 0-.352-.071-.634-.282-.916-.212-.211-.423-.423-.705-.634l.071.07c-1.128-.775-2.326-1.41-3.595-1.762-1.269-.423-2.679-.634-4.229-.634-1.269 0-2.467.14-3.595.493-1.128.353-2.255.775-3.242 1.34a13.01 13.01 0 0 0-2.749 2.114 13.013 13.013 0 0 0-2.115 2.749c-.564.986-1.057 2.114-1.339 3.242-.282 1.128-.493 2.397-.493 3.665 0 1.269.141 2.467.493 3.665.353 1.199.775 2.256 1.339 3.243a13.013 13.013 0 0 0 2.115 2.749c.846.845 1.762 1.55 2.749 2.114.987.564 2.044 1.057 3.242 1.34 1.269.352 2.467.493 3.665.493Zm21.991 0c1.481 0 2.961-.212 4.23-.564 1.339-.353 2.466-.916 3.383-1.692.987-.705 1.691-1.62 2.255-2.678.564-1.057.846-2.256.846-3.665 0-1.34-.211-2.538-.634-3.454-.423-.916-.987-1.762-1.762-2.467a9.596 9.596 0 0 0-2.679-1.692 21.996 21.996 0 0 0-3.454-1.268c-.352-.071-.704-.212-1.127-.282-.423-.07-.776-.141-1.128-.282a3.808 3.808 0 0 1-.916-.494c-.212-.211-.353-.493-.423-.846 0-.493.141-.845.564-1.057.423-.211.916-.352 1.621-.352.564 0 1.128.07 1.762.282a4.293 4.293 0 0 1 1.692 1.057c.141.14.211.282.352.352l.423.212c.141.07.282.07.493 0 .141 0 .353-.141.494-.282a28.057 28.057 0 0 1 1.55-1.41c.494-.423.987-.846 1.551-1.269.352-.281.493-.563.493-.775 0-.211-.141-.493-.352-.775-.634-.705-1.339-1.269-1.974-1.762a8.608 8.608 0 0 0-2.044-1.198c-.705-.282-1.409-.564-2.185-.705-.775-.141-1.55-.212-2.467-.212-1.409 0-2.749.212-3.947.564-1.198.353-2.185.846-3.031 1.55-.845.635-1.48 1.48-1.973 2.397a7.421 7.421 0 0 0-.705 3.102c0 .986.141 1.903.352 2.748a7.7 7.7 0 0 0 1.34 2.467c.634.776 1.48 1.48 2.537 2.044 1.057.635 2.467 1.128 4.088 1.622.494.14.987.282 1.41.423.423.14.775.281 1.057.422.282.141.493.353.634.564.141.212.212.564.212.917 0 .422-.141.775-.423.986-.282.212-.564.423-.987.494-.352.07-.775.14-1.198.211h-.987c-.141 0-.352 0-.634-.07-.282-.07-.635-.212-1.057-.353a5.338 5.338 0 0 1-1.269-.634c-.423-.282-.846-.564-1.198-.916-.423-.353-.705-.635-.987-.705-.282-.07-.564 0-.916.282l-2.679 2.678c-.141.141-.282.282-.352.423a1.32 1.32 0 0 0-.141.564c0 .211 0 .423.07.634.071.212.212.423.353.635.563.775 1.268 1.41 1.973 1.903.776.564 1.551.986 2.397 1.268.845.353 1.691.564 2.608.705 1.127.282 1.973.353 2.889.353Z" fill="#233770"/><path d="M178.22 78.097H20.616V96H178.22V78.097Z" fill="#000"/><path d="M178.22 78.097H20.616V96H178.22V78.097Z" fill="#000"/><path d="M27.568 81.645a2.1 2.1 0 0 0-.779-.666c-.34-.179-.736-.269-1.19-.269-.292 0-.585.043-.877.128a2.346 2.346 0 0 0-.794.368c-.236.16-.43.368-.58.623-.142.246-.213.543-.213.892 0 .265.048.491.142.68.094.189.222.354.382.496.17.141.364.264.581.368.227.104.467.203.722.297.293.114.59.241.893.383.302.142.575.316.821.524.246.208.444.453.595.736.15.274.226.6.226.978 0 .34-.06.698-.184 1.076a2.986 2.986 0 0 1-.609 1.034c-.283.311-.656.571-1.119.779-.462.198-1.033.297-1.713.297a4.407 4.407 0 0 1-1.77-.368c-.567-.255-1.001-.628-1.303-1.119l.906-.58c.189.33.472.613.85.85.377.226.83.339 1.36.339.34 0 .66-.047.962-.142.312-.103.581-.245.808-.425a1.936 1.936 0 0 0 .75-1.558c0-.283-.056-.528-.17-.736a1.69 1.69 0 0 0-.467-.538 3.03 3.03 0 0 0-.666-.397 10.6 10.6 0 0 0-.793-.325 7.242 7.242 0 0 1-.835-.369 3.1 3.1 0 0 1-.723-.51 2.49 2.49 0 0 1-.51-.693 2.298 2.298 0 0 1-.184-.95c0-.424.08-.82.241-1.189.16-.368.392-.684.694-.949a3.157 3.157 0 0 1 1.119-.637c.444-.16.949-.24 1.515-.24.68 0 1.256.112 1.728.34.482.216.831.5 1.048.849l-.864.623ZM30.081 90.114h-.948l1.175-6.628h.949l-1.176 6.628Zm1.742-9.191c0 .189-.066.35-.198.481a.61.61 0 0 1-.467.199.695.695 0 0 1-.468-.17.605.605 0 0 1-.184-.468c0-.198.066-.363.199-.496a.687.687 0 0 1 .481-.198c.18 0 .33.062.453.184.123.114.184.27.184.468ZM41.043 83.316c.718 0 1.275.184 1.671.552.406.36.61.85.61 1.473 0 .114-.01.227-.029.34-.01.114-.024.236-.043.369l-.722 4.064h-.949l.652-3.668c.056-.293.085-.571.085-.835 0-.463-.109-.827-.326-1.091-.217-.274-.6-.41-1.147-.41-.35 0-.652.07-.907.212a2.14 2.14 0 0 0-.637.566c-.17.236-.307.5-.41.793-.095.293-.17.595-.227.907l-.623 3.526h-.95l.695-3.852c.056-.312.085-.6.085-.864 0-.397-.1-.708-.298-.935-.188-.236-.528-.354-1.02-.354-.226 0-.462.052-.707.156a2.193 2.193 0 0 0-.694.482c-.218.217-.411.49-.581.821a3.81 3.81 0 0 0-.368 1.147l-.595 3.4h-.949l.906-5.17c.038-.18.076-.41.114-.694.047-.283.08-.538.099-.765h.906c-.019.18-.042.378-.07.595a8.242 8.242 0 0 1-.086.538h.029c.274-.406.604-.722.991-.949a2.452 2.452 0 0 1 1.303-.354c.18 0 .364.02.552.057.199.038.383.113.553.226.18.104.335.246.467.425.132.18.227.411.283.694.255-.453.581-.797.978-1.034a2.53 2.53 0 0 1 1.36-.368ZM47.034 84.563c.104-.17.241-.331.41-.482a3.04 3.04 0 0 1 .567-.397c.218-.113.449-.203.694-.269.246-.066.5-.099.765-.099.453 0 .86.071 1.218.213.368.132.685.325.949.58a2.6 2.6 0 0 1 .609.907c.142.349.212.736.212 1.161 0 .566-.099 1.1-.297 1.6-.198.5-.472.935-.821 1.303-.34.368-.751.661-1.233.878a3.649 3.649 0 0 1-1.543.326c-.482 0-.935-.108-1.36-.326a2.176 2.176 0 0 1-.949-.963h-.028l-.807 4.518h-.95l1.785-10.027h.95l-.2 1.076h.03Zm4.433 1.67c0-.292-.047-.566-.142-.82a1.748 1.748 0 0 0-.396-.68 1.764 1.764 0 0 0-.652-.454 2.18 2.18 0 0 0-.892-.17c-.415 0-.802.085-1.161.255-.359.17-.67.406-.935.708a3.254 3.254 0 0 0-.623 1.034 3.358 3.358 0 0 0-.227 1.232c0 .312.048.6.142.864.104.255.25.482.44.68.188.189.41.335.665.44.264.103.562.155.892.155.434 0 .826-.085 1.175-.255.36-.17.666-.401.921-.694a3.02 3.02 0 0 0 .58-1.02 3.76 3.76 0 0 0 .213-1.274ZM54.922 90.114h-.963l1.883-10.707h.963l-1.883 10.707ZM58.462 90.114h-.95l1.176-6.628h.95l-1.176 6.628Zm1.742-9.191c0 .189-.066.35-.199.481a.61.61 0 0 1-.467.199.695.695 0 0 1-.467-.17.604.604 0 0 1-.184-.468c0-.198.066-.363.198-.496a.688.688 0 0 1 .481-.198c.18 0 .33.062.453.184.123.114.185.27.185.468ZM64.863 84.28h-1.558l-1.02 5.834h-.948l1.02-5.835h-1.403l.156-.793h1.374l.311-1.799c.057-.33.147-.641.27-.934.122-.302.283-.562.481-.78.208-.226.453-.405.736-.537.284-.133.614-.199.992-.199.123 0 .25.01.382.029.132.01.265.033.397.07l-.227.836a2.424 2.424 0 0 0-.665-.085c-.227 0-.425.043-.595.128-.16.085-.298.207-.411.368-.104.15-.194.33-.27.538-.065.208-.117.43-.155.666l-.297 1.7h1.586l-.156.792ZM67.383 89.066h.028l3.23-5.58h1.061l-5.013 8.342c-.312.51-.633.916-.963 1.218-.33.311-.741.467-1.232.467a3.84 3.84 0 0 1-.807-.085l.141-.878c.208.076.416.113.623.113.302 0 .562-.103.78-.311.226-.198.448-.486.665-.864l.821-1.388-1.388-6.614h.992l1.062 5.58ZM73.025 90.114h-.949l1.176-6.628h.949l-1.176 6.628Zm1.742-9.191c0 .189-.066.35-.198.481a.61.61 0 0 1-.467.199.695.695 0 0 1-.468-.17.605.605 0 0 1-.184-.468c0-.198.066-.363.198-.496a.687.687 0 0 1 .482-.198c.18 0 .33.062.453.184.123.114.184.27.184.468ZM77.642 83.486c-.019.18-.042.378-.07.595a8.311 8.311 0 0 1-.086.538h.029c.255-.406.58-.722.977-.949a2.524 2.524 0 0 1 1.289-.354c.717 0 1.274.184 1.67.552.407.36.61.85.61 1.473 0 .114-.01.227-.028.34a6.38 6.38 0 0 1-.043.369l-.722 4.064h-.95l.652-3.668c.057-.293.085-.571.085-.835 0-.463-.108-.827-.325-1.091-.218-.274-.6-.41-1.148-.41-.254 0-.51.051-.764.155a2.3 2.3 0 0 0-.723.482c-.217.217-.41.49-.58.821a3.81 3.81 0 0 0-.368 1.147l-.595 3.4h-.95l.907-5.17c.038-.18.076-.41.114-.694.047-.283.08-.538.099-.765h.92ZM83.847 91.502c.237.34.567.619.992.836.434.226.906.34 1.416.34.472 0 .878-.071 1.218-.213a2.24 2.24 0 0 0 .85-.566 2.65 2.65 0 0 0 .538-.836c.132-.312.231-.647.297-1.005l.241-1.26h-.028c-.302.424-.67.75-1.105.976-.434.227-.906.34-1.416.34-.453 0-.864-.07-1.232-.212a2.735 2.735 0 0 1-.92-.623 2.86 2.86 0 0 1-.596-.921 3.216 3.216 0 0 1-.198-1.147c0-.538.095-1.043.283-1.516.199-.472.468-.882.808-1.232a3.7 3.7 0 0 1 1.232-.835 3.79 3.79 0 0 1 1.543-.312c.237 0 .473.028.709.085.236.057.453.142.651.255.208.113.392.255.552.425.16.16.288.345.383.552h.028l.213-1.147h.934l-1.161 6.572a8.976 8.976 0 0 1-.297 1.147 3.36 3.36 0 0 1-.624 1.118c-.273.34-.642.624-1.104.85-.463.227-1.063.34-1.799.34a4.295 4.295 0 0 1-1.77-.354 3.247 3.247 0 0 1-1.275-.977l.638-.68Zm1.034-4.277c0 .283.047.552.142.807.094.255.231.482.41.68.18.189.402.34.666.453.265.104.567.156.907.156.425 0 .812-.08 1.161-.24.359-.17.666-.397.92-.68a3.12 3.12 0 0 0 .595-.978 3.36 3.36 0 0 0 .213-1.19c0-.292-.052-.566-.156-.82a1.808 1.808 0 0 0-.425-.68 1.98 1.98 0 0 0-.665-.454 2.243 2.243 0 0 0-.893-.17c-.425 0-.816.076-1.175.227-.35.151-.652.363-.907.637-.245.265-.439.59-.58.977a3.683 3.683 0 0 0-.213 1.275ZM97.188 90.114h-.963l1.883-10.707h.963l-1.883 10.707ZM100.728 90.114h-.95l1.176-6.628h.949l-1.175 6.628Zm1.742-9.191c0 .189-.066.35-.198.481a.611.611 0 0 1-.468.199.695.695 0 0 1-.467-.17c-.123-.114-.184-.27-.184-.468a.673.673 0 0 1 .679-.694c.18 0 .331.062.454.184.122.114.184.27.184.468ZM105.699 90.114h-1.02l-1.388-6.628h.977l1.063 5.608h.028l3.3-5.608h1.034l-3.994 6.628ZM111.032 87.055l-.029.17v.142c0 .311.052.594.156.85.113.254.264.476.453.665.198.189.425.335.68.44.264.103.548.155.85.155.519 0 .972-.113 1.359-.34.387-.236.699-.51.935-.821l.595.566a3.86 3.86 0 0 1-1.346 1.048 3.825 3.825 0 0 1-1.628.354c-.425 0-.822-.066-1.19-.198a2.892 2.892 0 0 1-.963-.567 2.751 2.751 0 0 1-.637-.906 3.26 3.26 0 0 1-.227-1.246c0-.538.099-1.053.298-1.544.198-.491.467-.92.807-1.289.349-.368.755-.66 1.218-.878.472-.227.977-.34 1.515-.34.907 0 1.591.241 2.054.722.472.482.708 1.105.708 1.87 0 .113-.01.288-.028.524a3.836 3.836 0 0 1-.1.623h-5.48Zm4.631-.708c.009-.076.014-.156.014-.24.009-.095.014-.18.014-.256 0-.51-.156-.925-.467-1.246-.312-.33-.77-.496-1.374-.496-.349 0-.675.062-.977.184a2.622 2.622 0 0 0-.793.482 3.078 3.078 0 0 0-.581.722 2.75 2.75 0 0 0-.34.85h4.504ZM122.594 84.945a1.502 1.502 0 0 0-.595-.595c-.264-.16-.581-.24-.949-.24-.17 0-.349.018-.538.056a1.95 1.95 0 0 0-.51.184 1.197 1.197 0 0 0-.382.34.827.827 0 0 0-.142.496c0 .179.028.325.085.439.066.113.156.212.269.297.114.076.25.146.411.213.16.056.345.113.552.17.652.188 1.147.43 1.487.722.34.283.51.689.51 1.218 0 .358-.08.67-.241.934-.16.255-.363.468-.609.638-.245.16-.519.278-.821.354-.302.075-.6.113-.892.113a3.993 3.993 0 0 1-1.572-.311 2.483 2.483 0 0 1-1.133-.95l.821-.537c.161.273.401.51.722.708.321.188.694.283 1.119.283.208 0 .411-.019.609-.057.199-.047.373-.113.524-.198.161-.094.288-.212.383-.354a.971.971 0 0 0 .141-.524c0-.35-.141-.614-.425-.793-.273-.19-.67-.368-1.189-.538a7.502 7.502 0 0 1-.595-.227 2.21 2.21 0 0 1-.538-.326 1.832 1.832 0 0 1-.397-.495 1.64 1.64 0 0 1-.141-.709c0-.34.075-.632.226-.878a1.99 1.99 0 0 1 .595-.594c.245-.161.519-.279.821-.355.303-.075.605-.113.907-.113.51 0 .963.1 1.359.298.406.198.699.462.878.793l-.75.538ZM127.895 87.423c0-.566.095-1.1.284-1.6.198-.5.472-.935.821-1.303.349-.368.76-.66 1.232-.878a3.748 3.748 0 0 1 1.558-.326c.482 0 .93.109 1.346.326.424.217.745.538.963.963h.028l.92-5.198h.949l-1.897 10.707h-.949l.198-1.09h-.028c-.218.34-.543.637-.978.892-.434.245-.92.368-1.458.368-.454 0-.864-.066-1.232-.198a2.82 2.82 0 0 1-.935-.595 2.583 2.583 0 0 1-.609-.906 3.057 3.057 0 0 1-.213-1.162Zm.992-.07c0 .302.042.58.127.835.095.255.232.482.411.68.179.189.397.34.651.453.255.104.553.156.893.156.415 0 .802-.085 1.161-.255.359-.17.67-.401.935-.694a3.48 3.48 0 0 0 .623-1.034c.151-.387.226-.802.226-1.246a2.23 2.23 0 0 0-.155-.85 1.81 1.81 0 0 0-.425-.68 1.874 1.874 0 0 0-.68-.453 2.38 2.38 0 0 0-.878-.156c-.434 0-.831.085-1.19.255-.349.17-.651.401-.906.694a3.194 3.194 0 0 0-.595 1.034 3.882 3.882 0 0 0-.198 1.26ZM137.697 90.114h-.949l1.175-6.628h.949l-1.175 6.628Zm1.742-9.191c0 .189-.066.35-.198.481a.611.611 0 0 1-.468.199.695.695 0 0 1-.467-.17c-.123-.114-.184-.27-.184-.468a.673.673 0 0 1 .679-.694c.18 0 .331.062.454.184.122.114.184.27.184.468ZM140.345 91.502c.236.34.567.619.992.836.434.226.906.34 1.416.34.472 0 .878-.071 1.218-.213.34-.132.623-.32.85-.566.226-.236.406-.515.538-.836.132-.312.231-.647.297-1.005l.241-1.26h-.028c-.303.424-.671.75-1.105.976-.434.227-.907.34-1.416.34-.454 0-.864-.07-1.232-.212a2.736 2.736 0 0 1-.921-.623 2.866 2.866 0 0 1-.595-.921 3.22 3.22 0 0 1-.198-1.147c0-.538.094-1.043.283-1.516a3.92 3.92 0 0 1 .807-1.232 3.7 3.7 0 0 1 1.233-.835 3.787 3.787 0 0 1 1.543-.312c.236 0 .472.028.708.085.236.057.454.142.652.255.208.113.392.255.552.425.161.16.288.345.383.552h.028l.212-1.147h.935l-1.161 6.572a9 9 0 0 1-.298 1.147c-.132.406-.34.779-.623 1.118-.274.34-.642.624-1.105.85-.462.227-1.062.34-1.798.34a4.29 4.29 0 0 1-1.77-.354 3.247 3.247 0 0 1-1.275-.977l.637-.68Zm1.034-4.277c0 .283.047.552.142.807.094.255.231.482.41.68.18.189.402.34.666.453.264.104.567.156.906.156.425 0 .812-.08 1.162-.24.359-.17.665-.397.92-.68.255-.284.454-.61.595-.978.142-.377.213-.774.213-1.19 0-.292-.052-.566-.156-.82a1.812 1.812 0 0 0-.425-.68 1.972 1.972 0 0 0-.666-.454 2.24 2.24 0 0 0-.892-.17c-.425 0-.817.076-1.175.227-.35.151-.652.363-.907.637-.245.265-.439.59-.58.977a3.676 3.676 0 0 0-.213 1.275ZM150.117 90.114h-.949l1.175-6.628h.949l-1.175 6.628Zm1.742-9.191c0 .189-.066.35-.199.481a.608.608 0 0 1-.467.199.695.695 0 0 1-.467-.17c-.123-.114-.184-.27-.184-.468a.673.673 0 0 1 .679-.694c.18 0 .331.062.454.184.122.114.184.27.184.468ZM156.476 84.28h-1.799l-.694 3.88c-.028.17-.042.32-.042.453 0 .311.075.52.226.623.151.104.349.156.595.156.132 0 .278-.019.439-.057a.96.96 0 0 0 .368-.155l-.113.82a1.457 1.457 0 0 1-.482.142 3.09 3.09 0 0 1-.609.057c-.16 0-.325-.019-.495-.056a1.37 1.37 0 0 1-.453-.199 1.323 1.323 0 0 1-.34-.41c-.085-.17-.128-.388-.128-.652 0-.132.014-.283.043-.453l.736-4.15h-1.374l.156-.793h1.346l.325-1.87h.949l-.326 1.87h1.827l-.155.793ZM161.951 86.05c.029-.161.048-.284.057-.369.009-.094.014-.18.014-.255 0-.481-.137-.821-.411-1.02-.273-.198-.656-.297-1.147-.297-.396 0-.779.08-1.147.241a3.211 3.211 0 0 0-.92.552l-.425-.637c.321-.283.717-.51 1.189-.68.472-.18.94-.269 1.402-.269.312 0 .609.038.893.114.292.066.543.179.75.34.217.15.387.349.51.594.132.236.198.524.198.864 0 .085-.004.203-.014.354-.009.142-.023.26-.042.354l-.482 2.691c-.047.255-.085.52-.113.793a7.045 7.045 0 0 0-.043.694h-.849c0-.16.004-.335.014-.524.019-.189.042-.373.071-.552h-.029a5.242 5.242 0 0 1-.566.566 2.818 2.818 0 0 1-.595.369c-.198.094-.415.16-.651.198-.227.047-.477.07-.751.07-.227 0-.458-.028-.694-.084a2.007 2.007 0 0 1-.651-.284 1.89 1.89 0 0 1-.482-.538c-.123-.217-.184-.486-.184-.807 0-.529.151-.954.453-1.275.302-.33.694-.58 1.176-.75a6.555 6.555 0 0 1 1.642-.354 16.81 16.81 0 0 1 1.827-.1Zm-.354.722c-.425 0-.859.023-1.303.07a5.27 5.27 0 0 0-1.218.241 2.337 2.337 0 0 0-.892.496c-.226.208-.34.486-.34.836 0 .207.038.382.114.524.075.132.174.24.297.325.132.076.279.133.439.17.17.029.34.043.51.043.34 0 .651-.057.935-.17.283-.113.533-.27.75-.467.217-.199.397-.425.538-.68.142-.265.241-.543.298-.836l.099-.552h-.227ZM165.594 90.114h-.963l1.883-10.707h.963l-1.883 10.707ZM169.162 90.114h-.963l1.884-10.707h.963l-1.884 10.707ZM173.906 89.066h.028l3.229-5.58h1.062l-5.013 8.342c-.312.51-.633.916-.963 1.218-.331.311-.741.467-1.232.467-.274 0-.543-.028-.808-.085l.142-.878c.208.076.415.113.623.113.302 0 .562-.103.779-.311.227-.198.449-.486.666-.864l.821-1.388-1.388-6.614h.992l1.062 5.58Z" fill="#233770"/><path d="M111.541.775c3.102 0 4.441 1.48 4.088 3.947-.281 2.467-2.185 3.807-5.074 3.807h-2.115l-.423 2.748h-2.114l1.55-10.502h4.088Zm-.775 5.992c1.692 0 2.678-.776 2.819-2.115.141-1.34-.563-2.115-2.326-2.115h-1.973l-.635 4.159h2.115v.07ZM125.145 7.26c-.353 2.537-2.326 4.159-5.005 4.159-2.678 0-4.158-1.622-3.806-4.23.353-2.607 2.326-4.229 5.005-4.229 2.749-.07 4.229 1.621 3.806 4.3Zm-1.974-.07c.282-1.833-.352-2.609-1.973-2.609-1.48 0-2.608.987-2.82 2.75-.282 1.762.353 2.537 1.974 2.537 1.48-.07 2.537-.987 2.819-2.679ZM133.18 11.277l-.775-5.215-2.326 5.215h-2.467l-1.41-8.246h1.974l.916 5.145c.071.423.071.705.141 1.057.141-.352.211-.704.423-1.127l2.326-5.146h1.692l.775 5.146c.07.352.07.705.141 1.057.141-.352.211-.705.423-1.128l2.467-5.145h1.973l-3.806 8.247h-2.467v.14ZM147.066 10.22c-1.34.917-2.397 1.269-3.948 1.269-2.607 0-4.088-1.621-3.665-4.37.423-2.678 2.185-4.159 4.793-4.159 2.467 0 3.736 1.41 3.383 4.018-.07.282-.07.493-.211.775h-6.132c-.071 1.551.775 2.185 2.044 2.185 1.198 0 2.114-.282 3.242-.916l.494 1.198Zm-1.199-3.806c.071-1.34-.564-1.973-1.762-1.973s-2.114.563-2.608 1.973h4.37ZM151.718 4.37c.775-.916 1.691-1.48 2.678-1.48.352 0 .634 0 1.128.07l-.423 1.974h-.987c-1.057 0-1.974.564-2.678 1.621l-.705 4.793h-2.115l1.199-8.247h2.044l-.141 1.269ZM163.066 10.22c-1.34.917-2.397 1.269-3.948 1.269-2.607 0-4.088-1.621-3.665-4.37.423-2.678 2.185-4.159 4.793-4.159 2.467 0 3.736 1.41 3.383 4.018-.07.282-.07.493-.211.775h-6.132c-.071 1.551.775 2.185 2.044 2.185 1.198 0 2.114-.282 3.242-.916l.494 1.198Zm-1.128-3.806c.07-1.34-.564-1.973-1.762-1.973-1.199 0-2.115.563-2.608 1.973h4.37ZM172.581 11.277h-2.115l.141-.845c-.986.634-1.55.986-2.889.986-1.833 0-3.525-1.268-3.102-4.37.423-3.03 2.115-4.158 4.088-4.158 1.128 0 1.974.352 2.82 1.057L172.088 0h2.114l-1.621 11.277Zm-1.198-5.85c-.705-.493-1.339-.845-2.185-.845-1.269 0-2.185.704-2.467 2.607-.282 1.904.564 2.608 1.762 2.608.987 0 1.621-.493 2.467-1.057l.423-3.313ZM181.885 4.018c1.057-.705 2.115-1.058 3.172-1.058 2.114 0 3.242 1.199 2.749 4.23-.423 3.1-2.326 4.228-4.159 4.228-1.339 0-1.973-.422-2.749-1.057l-.141.916h-2.044L180.405.07h2.044l-.564 3.948Zm-.705 4.793c.635.634 1.198 1.057 2.044 1.057 1.198 0 2.326-.775 2.608-2.75.282-1.902-.423-2.537-1.621-2.537-.846 0-1.762.564-2.608 1.199l-.423 3.03ZM198.449 3.101c-1.339 2.467-2.608 4.934-3.947 6.908-1.41 1.903-2.961 3.242-5.146 3.947l-.493-1.621c.916-.423 1.692-.846 2.467-1.55l-2.256-7.754h2.185l1.269 4.652c.141.423.212.846.282 1.269 1.198-1.692 2.115-3.454 3.454-5.921h2.185v.07ZM200.07 9.093c.775 0 1.198.493 1.057 1.198-.07.634-.634 1.127-1.339 1.127-.775 0-1.198-.563-1.057-1.198.141-.705.634-1.127 1.339-1.127Zm.846-5.569c.775 0 1.198.494 1.057 1.198-.07.635-.634 1.128-1.339 1.128-.775 0-1.198-.564-1.057-1.198.07-.634.634-1.128 1.339-1.128Z" fill="#000"/></svg>