<svg width="49" height="48" fill="none" xmlns="http://www.w3.org/2000/svg"><g clip-path="url('#clip0_10_291')"><path fill-rule="evenodd" clip-rule="evenodd" d="M24.5 0c13.255 0 24 10.745 24 24s-10.745 24-24 24S.5 37.255.5 24s10.745-24 24-24Zm15.234 33.304V15.467l-8.919 8.918 8.92 8.919Zm-28.563.363H37.83l-8.148-8.147-3.105 3.104a.803.803 0 0 1-.568.235h-3.018a.802.802 0 0 1-.568-.235l-3.105-3.104-8.147 8.147Zm-1.905-18.2v17.837l8.919-8.919-8.92-8.919ZM38.6 14.332H10.4l12.923 12.923h2.355L38.6 14.333Z" fill="#0BA6E0"/></g><defs><clipPath id="clip0_10_291"><path fill="#fff" transform="translate(.5)" d="M0 0h48v48H0z"/></clipPath></defs></svg>