<svg width="48" height="48" fill="none" xmlns="http://www.w3.org/2000/svg"><g clip-path="url('#clip0_10_285')" fill="#0BA6E0"><path d="M24.24 0C10.32 0 0 5.52 0 12v1.68c0 1.68 1.44 2.88 3.12 3.12h6.24c2.16 0 3.36-2.64 2.64-4.8-1.2-1.68 0-4.08 1.92-4.56C20.64 6 27.36 6 34.32 7.44c2.16.48 3.12 2.64 1.92 4.56-.72 2.16.48 4.56 2.64 4.8h6.24c1.68 0 3.12-1.44 3.12-3.12V12c-.24-6.72-10.8-12-24-12Z"/><path d="M36.72 18c-.48-.72-1.2-1.2-2.16-1.2H31.2v-3.6c0-.72-.48-1.2-1.2-1.2h-2.4c-.72 0-1.2.48-1.2 1.2v3.6h-4.8v-3.6c0-.72-.48-1.2-1.2-1.2H18c-.72 0-1.2.48-1.2 1.2v3.6h-3.36c-.96 0-1.68.48-2.16 1.2-3.6 6.24-8.88 14.16-8.88 27.6 0 1.2.96 2.4 2.4 2.4h38.4c1.44 0 2.4-1.2 2.4-2.4 0-13.44-5.52-21.84-8.88-27.6ZM24 43.2c-5.28 0-9.6-4.32-9.6-9.6 0-5.28 4.32-9.6 9.6-9.6 5.28 0 9.6 4.32 9.6 9.6 0 5.28-4.32 9.6-9.6 9.6Z"/><path d="M24 38.4a4.8 4.8 0 1 0 0-9.6 4.8 4.8 0 0 0 0 9.6Z"/></g><defs><clipPath id="clip0_10_285"><path fill="#fff" d="M0 0h48v48H0z"/></clipPath></defs></svg>